<svg width="150" height="227" viewBox="0 0 150 227" fill="none" xmlns="http://www.w3.org/2000/svg">
<path d="M113.809 82.1794C113.751 82.6982 113.584 83.2211 113.497 83.7138C113.41 84.2065 113.257 85.0551 113.094 85.6866C112.932 86.3181 112.632 87.5529 112.347 88.4881L111.844 90.0569C111.454 91.1048 111.036 92.1266 110.561 93.0962C110.404 93.5128 110.222 93.9192 110.015 94.3131C109.421 95.4779 108.751 96.6022 108.009 97.6789C107.852 97.8479 107.696 98.0169 107.514 98.2142C106.68 99.4491 105.766 100.628 104.777 101.743C101.613 105.377 97.6606 108.25 93.2144 110.147C90.4629 111.274 87.5589 111.997 84.593 112.295C80.9101 112.678 77.1818 112.234 73.683 110.995C70.227 109.73 67.1415 107.621 64.7127 104.863C64.2549 104.343 63.8284 103.796 63.4357 103.225L63.2646 103.069C62.7141 102.304 62.2293 101.495 61.8154 100.649L61.3034 99.6085C60.9741 98.8738 60.6845 98.1223 60.4358 97.3574L60.2214 96.8489C60.0662 96.3264 59.9417 95.7955 59.8485 95.2589L59.2206 91.6666C59.0574 90.596 58.7992 89.5412 58.4488 88.5147C57.5491 85.6838 55.6773 83.2517 53.1622 81.6455C50.5106 80.2215 47.5914 79.0826 44.5913 79.2248C41.5912 79.367 38.4485 80.5685 35.9673 82.2358C33.3823 83.6971 31.2967 85.8757 29.4906 88.2233C26.9098 92.3192 25.4959 97.0409 25.3985 101.888C25.3012 106.736 26.5242 111.529 28.9378 115.759C32.1654 121.282 36.7473 125.908 42.2523 129.2C47.7573 132.493 54.0043 134.344 60.4051 134.58C71.5784 134.517 82.4231 130.958 91.4024 124.408C95.3559 121.68 98.8889 118.396 101.892 114.658C103.053 113.209 104.134 111.698 105.131 110.131C110.182 101.638 113.164 92.0764 113.838 82.2055L113.809 82.1794Z" fill="url(#paint0_linear)"/>
<path d="M32.0886 120.305C31.922 120.097 31.7931 119.849 31.6462 119.641C31.4994 119.432 31.2474 119.072 31.0776 118.787C30.9077 118.501 30.5688 117.95 30.3333 117.511L29.9469 116.766C29.7081 116.25 29.4891 115.732 29.3094 115.213C29.2152 115.007 29.1338 114.796 29.0658 114.58C28.8583 113.948 28.6929 113.303 28.5706 112.65C28.5491 112.536 28.5357 112.425 28.5077 112.283C28.3611 111.54 28.3111 110.786 28.2636 110.03C28.0881 107.589 28.4715 105.141 29.3853 102.866C29.968 101.475 30.7514 100.175 31.7111 99.0057C32.8978 97.549 34.4002 96.3738 36.1075 95.5669C37.8084 94.7843 39.6815 94.4384 41.5531 94.5614C41.9061 94.5847 42.2573 94.6287 42.6049 94.6933L42.7231 94.6884C43.1978 94.7666 43.665 94.8842 44.1196 95.0401L44.6803 95.2314C45.0645 95.3779 45.4405 95.5446 45.8067 95.7308L46.0677 95.837C46.3126 95.9695 46.5494 96.116 46.777 96.2757L48.3021 97.3437C48.748 97.6705 49.2224 97.9576 49.7198 98.2015C51.0673 98.8981 52.6205 99.1031 54.1065 98.7805C55.5757 98.3434 57.0382 97.708 58.0664 96.5825C59.0946 95.457 59.791 93.8993 60.0809 92.4108C60.4826 90.9593 60.4453 89.4285 60.2462 87.937C59.6936 85.5389 58.4948 83.3334 56.7767 81.5541C55.0586 79.7748 52.8852 78.488 50.4866 77.8298C47.3276 76.998 44.0059 76.9742 40.8341 77.7605C37.6622 78.5469 34.7446 80.1176 32.3559 82.3248C28.3579 86.3485 25.7423 91.5124 24.8797 97.0848C24.4437 99.4822 24.3598 101.929 24.6308 104.35C24.7373 105.287 24.8949 106.218 25.1028 107.138C26.3565 112.004 28.7417 116.512 32.0689 120.306L32.0886 120.305Z" fill="url(#paint1_linear)"/>
<path d="M53.5746 23.6182L53.9761 23.425C61.5208 20.1266 68.6886 17.2542 75.4798 14.8076C82.8565 12.2005 90.3671 9.98854 97.9798 8.18111C99.566 7.91368 98.8076 7.02222 95.7045 5.50674C92.2617 3.8664 88.6782 2.53872 84.9973 1.53975C80.9672 0.484863 78.6176 0.18771 77.9038 0.856304C75.911 2.43121 72.9517 4.94215 68.9811 8.37426C62.1106 14.3173 56.757 18.6756 52.9203 21.449C52.7342 21.6075 52.6046 21.8222 52.5509 22.0606C52.4973 22.299 52.5225 22.5484 52.6229 22.7713C52.6453 23.0064 52.7559 23.2243 52.9324 23.3813C53.1089 23.5384 53.3383 23.623 53.5746 23.6182Z" fill="#F6FCFF"/>
<path d="M107.646 106.449L105.936 102.705L73.4425 31.8047H71.8067L51.8665 78.3188C55.2197 79.7661 57.5438 81.5332 59.5449 85.7632L66.4382 69.3945L82.0528 108.44L83.763 112.734L84.7148 115.126L88.9382 125.675L91.3027 131.618C92.9189 135.674 95.716 139.152 99.3323 141.602C102.949 144.052 107.217 145.362 111.587 145.362H125.491L107.646 106.449Z" fill="#F6FCFF"/>
<path d="M33.3626 121.864L23.0597 145.431H34.8415L41.7999 128.952C38.6846 126.831 35.7842 124.723 33.3626 121.864Z" fill="#F6FCFF"/>
<path d="M138.085 174.555H137.728L126.551 200.465H129.211L132.139 193.477H140.701L142.176 197.337C142.547 198.26 143.188 199.051 144.017 199.609C144.846 200.166 145.824 200.464 146.826 200.465H150L138.085 174.555ZM132.765 191.969L136.498 183.095L140.052 191.969H132.765Z" fill="#F6FCFF"/>
<path d="M52.7599 174.311V191.059C52.8007 192.536 52.4946 194.002 51.8658 195.34C51.3166 196.504 50.429 197.477 49.3174 198.135C48.1262 198.806 46.7743 199.143 45.4054 199.112C44.0418 199.143 42.6983 198.781 41.5382 198.069C40.4367 197.349 39.5737 196.323 39.0569 195.119C38.4625 193.715 38.1657 192.205 38.1851 190.682V179.28C38.1851 177.962 37.6576 176.698 36.7185 175.766C35.7795 174.835 34.5058 174.311 33.1778 174.311H32.5966V190.859C32.544 192.697 33.0168 194.512 33.9602 196.095C34.912 197.639 36.3267 198.849 38.0063 199.555C40.1322 200.417 42.4171 200.825 44.7125 200.753C46.7026 200.804 48.6773 200.394 50.4798 199.555C52.0304 198.815 53.3169 197.623 54.1682 196.139C55.0516 194.536 55.4913 192.73 55.4424 190.904V176.529C55.4379 176.279 55.4875 176.031 55.5877 175.801C55.688 175.572 55.8366 175.366 56.0236 175.198C56.4116 174.858 56.9145 174.676 57.4319 174.688H58.1249V174.311H52.7599Z" fill="#F6FCFF"/>
<path d="M115.798 198.845H106.7V188.464H115.15V186.911H106.7V176.152H115.374C115.794 176.152 116.198 175.986 116.496 175.691C116.793 175.395 116.961 174.995 116.961 174.577H101.112V200.442H117.408C117.408 200.019 117.238 199.613 116.936 199.313C116.635 199.014 116.225 198.845 115.798 198.845Z" fill="#F6FCFF"/>
<path d="M90.2697 199.755C89.752 199.542 89.2754 199.242 88.8614 198.867C88.3201 198.368 87.8193 197.826 87.3637 197.248C87.0061 196.804 86.626 196.294 86.2013 195.695C85.7766 195.096 85.3742 194.52 84.9942 193.943C84.6142 193.366 84.3012 192.878 84.033 192.501L83.6083 191.835C83.1383 191.134 82.5909 190.487 81.9764 189.905C81.354 189.285 80.5858 188.827 79.741 188.575C81.0003 188.485 82.2052 188.03 83.2059 187.266C84.072 186.565 84.7546 185.667 85.1954 184.648C85.6128 183.672 85.8331 182.625 85.8437 181.565C85.9028 180.425 85.6722 179.288 85.173 178.259C84.7121 177.363 84.0271 176.599 83.1835 176.041C82.3092 175.481 81.3398 175.082 80.3222 174.865C79.254 174.607 78.1579 174.481 77.0585 174.488H67.0663V200.442H67.6475C68.9716 200.437 70.2395 199.91 71.1737 198.979C72.108 198.048 72.6324 196.787 72.6324 195.473V193.721V176.196H75.5608C76.1324 176.194 76.6986 176.307 77.225 176.528C77.7514 176.749 78.2271 177.074 78.6233 177.483C79.5294 178.573 80.006 179.953 79.9645 181.365C79.988 181.697 79.988 182.031 79.9645 182.363C79.9645 182.674 79.9645 182.918 79.8304 183.14C79.694 184.062 79.3334 184.938 78.7798 185.691C78.3436 186.268 77.7667 186.726 77.1032 187.022C76.4809 187.283 75.8121 187.419 75.1361 187.421H73.9737V187.798C74.5061 187.884 74.9984 188.132 75.382 188.508C75.8821 189.014 76.2704 189.619 76.522 190.283C76.522 190.504 76.7232 190.815 76.8797 191.192C77.0362 191.569 77.2597 192.035 77.5056 192.501L78.2209 194.009L78.9586 195.473C79.1487 195.858 79.3653 196.228 79.6069 196.583C80.1921 197.465 80.9528 198.22 81.8423 198.801C82.7293 199.373 83.7141 199.779 84.7483 199.999C85.9477 200.239 87.1685 200.358 88.392 200.354H92.0357V199.977C91.4389 199.996 90.8428 199.921 90.2697 199.755Z" fill="#F6FCFF"/>
<path d="M11.5615 173.978H11.1815L0.0045166 199.91H2.66464L5.59302 192.9H14.1323L15.6523 196.671C16.0233 197.594 16.6647 198.385 17.4935 198.943C18.3224 199.501 19.3006 199.799 20.302 199.799H23.4539L11.5615 173.978ZM6.24128 191.414L9.95205 182.541L13.5287 191.414H6.24128Z" fill="#F6FCFF"/>
<path d="M6.71089 171.605C8.4545 170.85 10.1087 170.185 11.6958 169.63C13.3975 168.999 15.137 168.473 16.9043 168.055C17.2843 168.055 17.1055 167.789 16.3678 167.434C15.5705 167.056 14.7399 166.752 13.8865 166.525C12.97 166.281 12.4112 166.281 12.277 166.281C11.8151 166.636 11.1221 167.212 10.1981 168.011C8.61098 169.386 7.35915 170.385 6.48735 171.028C6.48735 171.028 6.35322 171.183 6.48735 171.316C6.62147 171.449 6.48734 171.605 6.71089 171.605Z" fill="#F6FCFF"/>
<path d="M11.3604 223.956C10.227 224.388 9.02011 224.599 7.80611 224.578C7.08577 224.587 6.37101 224.451 5.7059 224.176C5.04079 223.901 4.43942 223.494 3.93887 222.98C3.39341 222.491 2.95967 221.891 2.66667 221.222C2.37368 220.552 2.22819 219.828 2.23996 219.098C2.20213 217.699 2.69697 216.337 3.62591 215.283C4.05992 214.785 4.59999 214.39 5.20699 214.125C5.81399 213.861 6.47273 213.733 7.13549 213.752C8.53052 213.77 9.91575 213.987 11.2486 214.396L11.8745 214.595L12.5452 212.577L11.8969 212.355C10.3598 211.853 8.75353 211.591 7.13549 211.578C6.1582 211.559 5.18795 211.746 4.28969 212.129C3.39143 212.511 2.5859 213.08 1.92701 213.797C0.624705 215.263 -0.0631192 217.167 0.00455984 219.121C-0.0215078 220.124 0.163859 221.122 0.548792 222.05C0.933725 222.978 1.50974 223.816 2.23996 224.511C2.96273 225.224 3.82107 225.787 4.76511 226.168C5.70915 226.549 6.72005 226.74 7.73905 226.729C8.53416 226.729 9.32751 226.655 10.1086 226.507C10.8338 226.377 11.5348 226.137 12.1875 225.798L12.7016 225.487L11.8969 223.69L11.3604 223.956Z" fill="#F6FCFF"/>
<path d="M30.2715 211.578C29.2947 211.561 28.3253 211.75 27.4275 212.133C26.5296 212.515 25.7238 213.082 25.0631 213.796C23.7538 215.274 23.0316 217.175 23.0316 219.143C23.0316 221.11 23.7538 223.011 25.0631 224.489C25.7201 225.207 26.5253 225.778 27.424 226.16C28.3227 226.543 29.2938 226.73 30.2715 226.707C31.2492 226.73 32.2204 226.543 33.1191 226.16C34.0178 225.778 34.823 225.207 35.48 224.489C36.8029 223.017 37.534 221.114 37.534 219.143C37.534 217.171 36.8029 215.268 35.48 213.796C34.8193 213.082 34.0135 212.515 33.1156 212.133C32.2178 211.75 31.2484 211.561 30.2715 211.578ZM30.2715 224.511C29.62 224.52 28.9743 224.388 28.3796 224.123C27.785 223.859 27.2558 223.469 26.829 222.98C25.932 221.891 25.442 220.527 25.442 219.12C25.442 217.714 25.932 216.35 26.829 215.261C27.2676 214.764 27.8122 214.371 28.4232 214.11C29.0342 213.849 29.6962 213.727 30.361 213.752C31.0294 213.724 31.6957 213.844 32.3109 214.105C32.926 214.366 33.4743 214.761 33.9152 215.261C34.8122 216.35 35.3022 217.714 35.3022 219.12C35.3022 220.527 34.8122 221.891 33.9152 222.98C33.467 223.496 32.9052 223.902 32.2733 224.167C31.6415 224.433 30.9565 224.55 30.2715 224.511Z" fill="#F6FCFF"/>
<path d="M60.3602 222.115L60.2485 221.982L51.3069 211.645H49.8986V226.396H52.134V216.104L61.2768 226.552H62.5956V211.8H60.3602V222.115Z" fill="#F6FCFF"/>
<path d="M73.3927 213.952H77.9306V226.441H80.1883V213.952H84.7262V211.8H73.3927V213.952Z" fill="#F6FCFF"/>
<path d="M97.8703 219.586H102.676V217.479H97.8703V213.952H103.168V211.8H95.5902V226.441H103.392V224.311H97.8703V219.586Z" fill="#F6FCFF"/>
<path d="M125.522 222.115V221.982L116.581 211.645H115.172V226.396H117.408V216.104L126.528 226.552H127.936V211.8H125.701L125.522 222.115Z" fill="#F6FCFF"/>
<path d="M138.666 211.8V213.952H143.204V226.441H145.462V213.952H150V211.8H138.666Z" fill="#F6FCFF"/>
<defs>
<linearGradient id="paint0_linear" x1="76.8789" y1="129.714" x2="39.1713" y2="77.0612" gradientUnits="userSpaceOnUse">
<stop offset="0.0689356" stop-color="#E6B9C5"/>
<stop offset="0.487928" stop-color="#9996B9"/>
<stop offset="0.830749" stop-color="#1D5DA5"/>
</linearGradient>
<linearGradient id="paint1_linear" x1="70.0556" y1="98.5833" x2="23.5481" y2="77.8341" gradientUnits="userSpaceOnUse">
<stop offset="0.0001" stop-color="#1D5DA5"/>
<stop offset="0.935417" stop-color="#76C1DE"/>
</linearGradient>
</defs>
</svg>
