<svg width="56" height="78" viewBox="0 0 56 78" fill="none" xmlns="http://www.w3.org/2000/svg">
<path d="M50.0957 41.7937C50.0664 42.0547 49.9822 42.3178 49.9385 42.5657C49.8948 42.8136 49.818 43.2406 49.7363 43.5584C49.6546 43.8761 49.5042 44.4975 49.3607 44.968L49.1081 45.7574C48.9123 46.2847 48.7021 46.7988 48.4633 47.2867C48.3845 47.4963 48.2929 47.7008 48.1889 47.899C47.8904 48.4851 47.5536 49.0508 47.1806 49.5926C47.1021 49.6776 47.0235 49.7627 46.9319 49.8619C46.5129 50.4833 46.0535 51.0765 45.5565 51.6378C43.9664 53.4662 41.9804 54.9115 39.7461 55.8662C38.3634 56.4332 36.9041 56.7972 35.4136 56.9469C33.5629 57.1398 31.6893 56.9162 29.931 56.2926C28.1943 55.6566 26.6438 54.5954 25.4232 53.2074C25.1931 52.9456 24.9788 52.6704 24.7815 52.3835L24.6955 52.3046C24.4189 51.9198 24.1752 51.5125 23.9672 51.0873L23.7099 50.5635C23.5445 50.1938 23.3989 49.8157 23.274 49.4308L23.1662 49.175C23.0882 48.912 23.0256 48.6449 22.9788 48.3749L22.6633 46.5673C22.5813 46.0286 22.4515 45.4979 22.2754 44.9814C21.8233 43.557 20.8827 42.3332 19.6187 41.525C18.2862 40.8085 16.8192 40.2354 15.3116 40.307C13.804 40.3786 12.2247 40.9831 10.9778 41.8221C9.67878 42.5573 8.6307 43.6535 7.72312 44.8348C6.42617 46.8957 5.71563 49.2715 5.66672 51.7106C5.61782 54.1498 6.23238 56.5614 7.44532 58.6901C9.06727 61.4691 11.3698 63.7966 14.1362 65.4533C16.9026 67.11 20.0419 68.0415 23.2585 68.1602C28.8734 68.1284 34.3232 66.3377 38.8356 63.042C40.8223 61.6693 42.5977 60.017 44.1071 58.1362C44.6904 57.4069 45.2336 56.6465 45.7343 55.8583C48.2729 51.5849 49.7711 46.7736 50.1101 41.8068L50.0957 41.7937Z" fill="url(#paint0_linear)"/>
<path d="M9.02847 60.9774C8.94475 60.8729 8.88001 60.748 8.8062 60.6432C8.73238 60.5383 8.60577 60.3571 8.52041 60.2134C8.43505 60.0698 8.26475 59.7923 8.14641 59.5715L7.9522 59.1969C7.83223 58.9369 7.72216 58.6765 7.63189 58.4153C7.58451 58.3117 7.54362 58.2052 7.50946 58.0966C7.40519 57.7787 7.32206 57.4543 7.26059 57.1256C7.24981 57.068 7.24306 57.0121 7.22898 56.9407C7.1553 56.5668 7.13021 56.1875 7.10633 55.8073C7.01814 54.5792 7.2108 53.3471 7.67001 52.2024C7.96282 51.5026 8.3565 50.8484 8.8388 50.2601C9.43515 49.5271 10.1901 48.9359 11.0481 48.5298C11.9028 48.136 12.8441 47.962 13.7847 48.0239C13.9621 48.0356 14.1385 48.0578 14.3132 48.0903L14.3726 48.0878C14.6112 48.1271 14.846 48.1863 15.0744 48.2648L15.3562 48.361C15.5493 48.4347 15.7382 48.5186 15.9222 48.6123L16.0534 48.6658C16.1764 48.7324 16.2954 48.8061 16.4098 48.8865L17.1762 49.4238C17.4003 49.5883 17.6387 49.7328 17.8887 49.8555C18.5658 50.206 19.3464 50.3091 20.0931 50.1468C20.8314 49.9269 21.5664 49.6072 22.0831 49.0408C22.5998 48.4745 22.9497 47.6908 23.0954 46.9418C23.2973 46.2114 23.2785 45.4412 23.1785 44.6907C22.9008 43.484 22.2984 42.3743 21.435 41.479C20.5716 40.5837 19.4794 39.9362 18.274 39.605C16.6865 39.1865 15.0173 39.1745 13.4233 39.5701C11.8294 39.9658 10.3632 40.7562 9.16281 41.8668C7.15369 43.8914 5.83928 46.4897 5.40584 49.2936C5.1867 50.4999 5.14457 51.7311 5.28075 52.9491C5.33427 53.4207 5.41344 53.8891 5.51791 54.3523C6.14794 56.8003 7.34657 59.0689 9.01857 60.9778L9.02847 60.9774Z" fill="url(#paint1_linear)"/>
<path d="M19.8259 12.3274L20.0276 12.2302C23.819 10.5705 27.4211 9.12518 30.8338 7.89414C34.5408 6.58232 38.3152 5.46932 42.1407 4.55987C42.9379 4.4253 42.5567 3.97675 40.9973 3.2142C39.2672 2.38883 37.4664 1.72078 35.6167 1.21812C33.5914 0.68733 32.4107 0.537811 32.052 0.874228C31.0505 1.66668 29.5634 2.93011 27.5681 4.65706C24.1155 7.64744 21.4251 9.84038 19.497 11.2359C19.4035 11.3157 19.3384 11.4237 19.3114 11.5436C19.2845 11.6636 19.2972 11.7891 19.3476 11.9012C19.3589 12.0195 19.4144 12.1292 19.5031 12.2082C19.5918 12.2872 19.7071 12.3298 19.8259 12.3274Z" fill="#1D5DA5"/>
<path d="M46.9984 54.0058L46.1389 52.1219L29.8101 16.4467H28.988L18.9675 39.8513C20.6526 40.5795 21.8206 41.4686 22.8262 43.5971L26.2902 35.3608L34.1371 55.0076L34.9965 57.1681L35.4748 58.3718L37.5971 63.6797L38.7854 66.6701C39.5975 68.7108 41.0032 70.4608 42.8205 71.6937C44.6377 72.9265 46.783 73.5855 48.9787 73.5853H55.9661L46.9984 54.0058Z" fill="#1D5DA5"/>
<path d="M9.66896 61.7618L4.49146 73.6202H10.4122L13.9089 65.3283C12.3434 64.2614 10.8859 63.2005 9.66896 61.7618Z" fill="#1D5DA5"/>
<defs>
<linearGradient id="paint0_linear" x1="31.5371" y1="65.7117" x2="12.5558" y2="39.2414" gradientUnits="userSpaceOnUse">
<stop offset="0.0689356" stop-color="#E6B9C5"/>
<stop offset="0.487928" stop-color="#9996B9"/>
<stop offset="0.830749" stop-color="#1D5DA5"/>
</linearGradient>
<linearGradient id="paint1_linear" x1="28.108" y1="50.0476" x2="4.72673" y2="39.6295" gradientUnits="userSpaceOnUse">
<stop offset="0.0001" stop-color="#1D5DA5"/>
<stop offset="0.935417" stop-color="#76C1DE"/>
</linearGradient>
</defs>
</svg>
